<?xml version="1.0" encoding="utf-8"?>
<!-- Generator: Adobe Illustrator 24.1.1, SVG Export Plug-In . SVG Version: 6.00 Build 0)  -->
<svg version="1.1" id="Layer_1" xmlns="http://www.w3.org/2000/svg" xmlns:xlink="http://www.w3.org/1999/xlink" x="0px" y="0px"
	 viewBox="0 0 512 512" style="enable-background:new 0 0 512 512;" xml:space="preserve">
<style type="text/css">
	.st0{fill:#FFFFFF;}
</style>
<g transform="translate(0,0)">
	<path class="st0" d="M138.8,35.3L28.7,114.3l95.8,29.1l111.3-87.1L138.8,35.3L138.8,35.3z M251.8,66.4l-118,90l51.1,131.1l8.5-7.5
		l4.2-15.7c-5.9-3.8-9.7-12.3-9.1-20.4c0.6-7.9,5.1-13.5,11-13.7c1.2,0,2.4,0.1,3.6,0.5c1.1,0.4,2.1,0.9,3.1,1.5l7.9-29.5
		c0.1-0.4,0.2-0.7,0.4-1c0,0,0-0.1,0.1-0.1c0.1-0.2,0.2-0.5,0.3-0.7c0-0.1,0.1-0.1,0.1-0.2c0.1-0.2,0.2-0.4,0.4-0.6
		c0.2-0.2,0.3-0.5,0.5-0.7c0,0,0,0,0.1-0.1c0.2-0.2,0.4-0.4,0.5-0.6c0.2-0.2,0.4-0.4,0.6-0.6c0,0,0,0,0,0c0.1-0.1,0.3-0.2,0.5-0.3
		c0.1-0.1,0.2-0.1,0.3-0.2c0.2-0.1,0.3-0.2,0.5-0.3c0.1-0.1,0.2-0.1,0.3-0.2c0.1-0.1,0.3-0.1,0.4-0.2c0.1-0.1,0.3-0.1,0.4-0.2
		c0.1-0.1,0.3-0.1,0.4-0.2c0.1-0.1,0.3-0.1,0.4-0.1c0.1,0,0.3-0.1,0.4-0.1c0.2,0,0.3-0.1,0.5-0.1c0.2,0,0.3-0.1,0.5-0.1
		c0.1,0,0.2,0,0.4-0.1c0,0,0,0,0,0c0,0,0,0,0,0l33.6-2.9c1.6-5.8,5.5-9.6,10.3-9.8c1.2,0,2.4,0.1,3.6,0.5c3.3,1.1,6.3,3.7,8.5,7.3
		l13-1.1L251.8,66.4L251.8,66.4z M137.3,74c8.7,0.2,14.1,3.8,12.8,8.7c-1.5,5.7-11.3,11.1-21.9,12c-10.6,0.9-18.1-2.9-16.6-8.6
		c0,0,0,0,0,0c1.5-5.7,11.3-11.1,21.9-12c0,0,0,0,0,0C134.8,74,136,74,137.3,74L137.3,74z M237.5,97.5
		C237.5,97.5,237.5,97.5,237.5,97.5c1.2,0,2.4,0.1,3.6,0.5c7.4,2.4,12.8,12.2,12.1,21.9c-0.7,9.7-7.2,15.6-14.6,13.2c0,0,0,0,0,0
		c-7.4-2.4-12.8-12.2-12.1-21.9c0,0,0,0,0,0C227,103.4,231.5,97.8,237.5,97.5L237.5,97.5z M24.2,131.7l47,114.1l94.2,40.4l-46-125.6
		L24.2,131.7L24.2,131.7z M172.1,149.1c1.2,0,2.4,0.1,3.6,0.5c7.4,2.4,12.8,12.2,12.1,21.9c-0.7,9.7-7.2,15.6-14.6,13.2c0,0,0,0,0,0
		c-7.4-2.4-12.8-12.2-12.1-21.9C161.7,155,166.2,149.4,172.1,149.1L172.1,149.1z M97,162.2c5.1-0.3,12.5,6.2,17,15.1
		c4.8,9.5,4.6,18.2-0.4,19.5c0,0,0,0,0,0c-5.1,1.3-13.1-5.4-17.9-14.9c-4.8-9.5-4.6-18.2,0.4-19.5C96.3,162.2,96.7,162.2,97,162.2
		L97,162.2z M360.4,202.4l-112.1,9.6L362,291.9l113.6-17L360.4,202.4L360.4,202.4z M70.8,212c5.1-0.3,12.5,6.2,17,15.1
		c4.8,9.5,4.6,18.2-0.4,19.5c-5.1,1.3-13.1-5.4-17.9-14.9c-4.8-9.5-4.6-18.2,0.4-19.5C70.2,212.1,70.5,212,70.8,212L70.8,212z
		 M228.2,219.8L186.7,374l115.6,99.5L349.4,305L228.2,219.8L228.2,219.8z M355.2,231c6.3,0.1,13.7,1.9,19.7,4.8
		c10.1,4.8,13.5,11.2,7.6,14.2c0,0,0,0,0,0c-5.9,3.1-18.8,1.6-28.9-3.2c0,0,0,0,0,0c-10.1-4.8-13.5-11.2-7.6-14.2
		C348.1,231.5,351.3,230.9,355.2,231L355.2,231z M487.8,291.3l-120.9,18l-46.8,167.3l116.3-31.8L487.8,291.3z M306,302.1
		c1.4,0,2.8,0.3,4.2,0.9c8.6,3.8,14.3,18,12.9,31.7c0,0,0,0,0,0c-1.4,13.7-9.6,21.7-18.1,17.9c-8.6-3.8-14.3-18-12.9-31.7
		c0,0,0,0,0,0C293.3,309.8,299,302.1,306,302.1z M460.1,313.7c3.3-0.1,6,1.4,7.7,4.1c4.2,6.8,1.4,19.5-6.2,28.4
		c-7.6,8.9-17.1,10.7-21.3,3.9c-4.2-6.8-1.4-19.5,6.2-28.4C450.6,316.8,455.6,313.9,460.1,313.7L460.1,313.7z M391.4,324.4
		c3.3-0.1,6,1.4,7.7,4.1c4.2,6.8,1.4,19.5-6.2,28.4c-7.6,8.9-17.1,10.7-21.3,3.9c-4.2-6.8-1.4-19.5,6.2-28.4
		C381.9,327.5,387,324.5,391.4,324.4L391.4,324.4z M217.4,337.7c1.4,0,2.8,0.3,4.2,0.9c8.6,3.8,14.3,18,12.9,31.7c0,0,0,0,0,0
		c-1.4,13.7-9.6,21.7-18.1,17.9c0,0,0,0,0,0c-8.6-3.8-14.3-18-12.9-31.7c0,0,0,0,0,0C204.7,345.4,210.3,337.7,217.4,337.7
		L217.4,337.7z M429.6,398.6c3.3-0.1,6,1.4,7.7,4.1c4.2,6.8,1.4,19.5-6.2,28.4c-7.6,8.9-17.1,10.7-21.3,3.9
		c-4.2-6.8-1.4-19.5,6.2-28.4C420.2,401.7,425.2,398.7,429.6,398.6L429.6,398.6z M359.3,418.1c3.3-0.1,6,1.4,7.7,4.1
		c4.2,6.8,1.4,19.5-6.2,28.4c-7.6,8.9-17.1,10.7-21.3,3.9c0,0,0,0,0,0c-4.2-6.8-1.4-19.5,6.2-28.4
		C349.9,421.1,354.9,418.2,359.3,418.1L359.3,418.1z"/>
</g>
</svg>
