<?xml version="1.0" encoding="utf-8"?>
<!-- Generator: Adobe Illustrator 24.1.1, SVG Export Plug-In . SVG Version: 6.00 Build 0)  -->
<svg version="1.1" id="Layer_1" xmlns="http://www.w3.org/2000/svg" xmlns:xlink="http://www.w3.org/1999/xlink" x="0px" y="0px"
	 viewBox="0 0 512 512" style="enable-background:new 0 0 512 512;" xml:space="preserve">
<style type="text/css">
	.st0{stroke:#9E3F3F;}
	.st1{fill:#FFFFFF;}
</style>
<path class="st0" d="M206,206h100v100H206V206z"/>
<g transform="translate(0,0)">
	<path class="st1" d="M74.5,36C53.2,36,36,53.2,36,74.5v363c0,21.3,17.2,38.5,38.5,38.5l0,0h363c21.3,0,38.5-17.2,38.5-38.5l0,0
		v-363c0-21.3-17.2-38.5-38.5-38.5H74.5z M256,206c27.6,0,50,22.4,50,50s-22.4,50-50,50s-50-22.4-50-50S228.4,206,256,206z"/>
</g>
</svg>
